<svg id="Layer_1" data-name="Layer 1" xmlns="http://www.w3.org/2000/svg" viewBox="0 0 284.57 114.03"><defs><style>.cls-1{fill:#fff;}</style></defs><title>jvw_white</title><g id="Layer_1-2" data-name="Layer 1-2"><path class="cls-1" d="M267,0,230.84,78.77l-12.6-45.23A6,6,0,0,0,207,32.62L186,77.76,173.87,26.9h-.07L162.6,48.64l14.47,60.78a6,6,0,0,0,11.27,1.14l21.75-46.65,12.66,45.47a6,6,0,0,0,11.24.9L284.57,0Z"/><path class="cls-1" d="M160.34,0,119,80.22l-15-53.6L93.19,47.5,110.38,109a6,6,0,0,0,11.12,1.13L178.35,0Z"/><polygon class="cls-1" points="0.65 75.12 0 75.9 0.17 76.04 0.65 75.12"/><path class="cls-1" d="M91.56,0,44.25,91.67,20.31,71.91,12.8,86.46l28,23.12a9,9,0,0,0,12.66-1.29,9.26,9.26,0,0,0,1-1.5L109.56,0Z"/></g></svg>