<svg xmlns="http://www.w3.org/2000/svg" viewBox="0 0 284.57 114.03"><title>Asset 3</title><g id="Layer_2" data-name="Layer 2"><g id="Layer_1-2" data-name="Layer 1"><path d="M267,0,230.84,78.77l-12.6-45.23A6,6,0,0,0,207,32.62L186,77.76,173.87,26.9l-.07,0L162.6,48.64l14.47,60.78a6,6,0,0,0,11.27,1.14l21.75-46.65,12.66,45.47a6,6,0,0,0,11.24.9L284.57,0Z"/><path d="M160.34,0,119,80.22l-15-53.6L93.19,47.5,110.38,109a6,6,0,0,0,11.12,1.13L178.35,0Z"/><polygon points="0.65 75.12 0 75.9 0.17 76.04 0.65 75.12"/><path d="M91.56,0,44.25,91.67,20.31,71.91,12.8,86.46l28,23.12a9,9,0,0,0,13.65-2.79L109.56,0Z"/></g></g></svg>